<svg version="1.1" id="Слой_1" xmlns="http://www.w3.org/2000/svg" xmlns:xlink="http://www.w3.org/1999/xlink" x="0px" y="0px" viewBox="0 0 100 90.2" style="enable-background:new 0 0 100 90.2;" xml:space="preserve">
<style type="text/css">
	.st0{fill:#ffc107;}
</style>
<path class="st0" d="M78.7,8.7C69.6,4.7,59,6.6,49.4,14C39.7,6.6,29.2,4.6,20,8.7C10.4,12.9,4.2,22.9,4.2,34.2  c0,16.7,26.5,37.4,42.4,48.3c0.8,0.6,1.8,0.9,2.7,0.9s1.8-0.2,2.5-0.7c0.1-0.1,0.2-0.1,0.3-0.2c15.8-10.9,42.3-31.6,42.3-48.3  C94.4,22.9,88.2,12.9,78.7,8.7z M49.3,72.6C27.7,57.3,13.9,42.4,13.9,34.2c0-7.3,4-14,10-16.7c1.9-0.8,3.9-1.2,5.9-1.2  c5,0,10.5,2.5,15.9,7.3c0.5,0.5,1.1,1,1.8,1.3c1.7,0.7,3.7,0.4,5.1-0.9c7.7-7,15.6-9.3,22.2-6.4c6,2.6,10,9.3,10,16.7  C84.7,42.4,70.9,57.3,49.3,72.6z"/>
</svg>